<svg width="571" height="67" viewBox="0 0 571 67" fill="none" xmlns="http://www.w3.org/2000/svg">
<g clip-path="url(#clip0_117_2)">
<path fill-rule="evenodd" clip-rule="evenodd" d="M570.239 33.365C570.239 5.434 552.733 0.922 536.043 0.922H513.374V65.9H536.043C552.733 65.9 570.239 61.388 570.239 33.365ZM558.451 33.365C558.451 54.204 547.569 55.587 536.043 55.587H530.694L530.347 55.598C528.116 55.574 526.943 55.929 525.843 56.576L523.366 58.154L521.3 56.087L522.748 55.261L522.75 55.258C523.666 54.634 524.407 53.717 524.887 52.425C525.117 51.654 525.248 50.742 525.249 49.655L525.254 49.656V16.912C525.243 16.3119 525.179 15.714 525.064 15.125C524.603 13.551 523.783 12.486 522.75 11.782C522.748 11.781 522.749 11.78 522.748 11.779L521.3 10.953L523.366 8.886L525.843 10.464C526.324 10.747 526.893 10.97 527.559 11.134C527.789 11.174 528.375 11.21 528.63 11.235H536.043C547.569 11.235 558.451 12.618 558.451 33.365ZM502.352 41.76V0.922H490.472V37.335C490.472 49.595 487.982 56.509 474.426 56.509C460.871 56.509 458.381 49.595 458.381 37.335V0.922H446.501V41.76C446.501 57.982 455.71 66.822 474.426 66.822C493.051 66.822 502.352 57.982 502.352 41.76ZM437.216 33.365C437.216 14.463 425.15 0 405.233 0C385.223 0 373.158 14.463 373.158 33.365C373.158 52.36 385.223 66.822 405.233 66.822C425.15 66.822 437.216 52.36 437.216 33.365ZM425.336 33.365C425.336 47.104 418.696 56.509 405.233 56.509C391.77 56.509 385.039 47.104 385.039 33.365C385.039 19.719 391.77 10.313 405.233 10.313C418.696 10.313 425.336 19.719 425.336 33.365ZM318.147 66.82L365.855 58.476V47.119L319.61 55.118L318.303 53.691C319.688 53.268 323.009 51.994 323.009 49.47C323.013 49.399 323.028 0.919 323.028 0.919H311.148V60.005C311.148 64.425 313.727 66.912 318.147 66.82ZM249.528 33.365C249.528 19.073 257.088 10.313 269.994 10.313C280.317 10.313 287.509 15.846 288.982 25.989H300.875C298.938 9.945 287.416 0 269.808 0C249.804 0 237.647 14.463 237.647 33.365C237.647 52.36 249.804 66.822 269.808 66.822C287.416 66.822 298.938 56.877 300.875 40.742H288.982C287.509 50.885 280.317 56.509 269.994 56.509C257.088 56.509 249.528 47.749 249.528 33.365ZM198.174 43.361L229.05 65.578V51.937L202.874 33.411L229.05 14.886V1.245L198.174 23.553H194.855L164.07 1.245V14.888L190.154 33.411L164.07 51.934V65.578L194.855 43.361H198.174ZM88.798 39.326H153.948V27.496H88.798V39.326ZM64.344 65.9H76.224V0.922H52.726L39.634 62.87H36.591L23.498 0.922H0V65.9H11.88V11.697L9.761 3.952H13.502L27.24 65.9H49.076L62.722 3.952H66.554L64.344 11.697V65.9Z" fill="white"/>
</g>
<defs>
<clipPath id="clip0_117_2">
<rect width="571" height="67" fill="white"/>
</clipPath>
</defs>
</svg>
